<svg xmlns="http://www.w3.org/2000/svg" version="1.1" xmlns:xlink="http://www.w3.org/1999/xlink" xmlns:svgjs="http://svgjs.dev/svgjs" width="2000" height="595" viewBox="0 0 2000 595"><g transform="matrix(1,0,0,1,-1.2121212121212466,-0.5339485997876068)"><svg viewBox="0 0 396 118" data-background-color="#ffffff" preserveAspectRatio="xMidYMid meet" height="595" width="2000" xmlns="http://www.w3.org/2000/svg" xmlns:xlink="http://www.w3.org/1999/xlink"><g id="tight-bounds" transform="matrix(1,0,0,1,0.2400000000000091,0.10589269607902452)"><svg viewBox="0 0 395.52 117.78820703219482" height="117.78820703219482" width="395.52"><g><svg viewBox="0 0 660.1215488114359 196.58812110086598" height="117.78820703219482" width="395.52"><g transform="matrix(1,0,0,1,264.60154881143586,5.282497053304709)"><svg viewBox="0 0 395.52000000000004 186.02312699425656" height="186.02312699425656" width="395.52000000000004"><g id="textblocktransform"><svg viewBox="0 0 395.52000000000004 186.02312699425656" height="186.02312699425656" width="395.52000000000004" id="textblock"><g><svg viewBox="0 0 395.52000000000004 186.02312699425656" height="186.02312699425656" width="395.52000000000004"><g transform="matrix(1,0,0,1,0,0)"><svg width="395.52000000000004" viewBox="51.75 -32.79999542236328 156.70001220703125 70.69999694824219" height="186.02312699425656" data-palette-color="#5521b5"><svg></svg><svg></svg><g class="wordmark-text-0" data-fill-palette-color="primary" id="text-0"><path xmlns="http://www.w3.org/2000/svg" d="M51.75 0.5l0.4-3.9c1.267-0.2 2.133-0.61 2.6-1.23 0.467-0.613 0.7-1.653 0.7-3.12v0-18.15c0-1.033-0.117-1.727-0.35-2.08-0.233-0.347-0.717-0.52-1.45-0.52v0c-0.3 0-0.583 0.017-0.85 0.05-0.267 0.033-0.45 0.05-0.55 0.05v0l-0.35-0.55 0.4-3.3 7.3 0.05c0.967 0 2.51-0.043 4.63-0.13 2.113-0.08 3.52-0.137 4.22-0.17v0l-0.45 4.1c-1.167 0.133-2.023 0.3-2.57 0.5-0.553 0.2-0.93 0.5-1.13 0.9-0.2 0.4-0.333 1-0.4 1.8v0c-0.333 4.8-0.5 10.75-0.5 17.85v0c0 1.067 0.167 1.773 0.5 2.12 0.333 0.353 1.017 0.53 2.05 0.53v0c1.467 0 2.567-0.2 3.3-0.6 0.733-0.4 1.277-1.143 1.63-2.23 0.347-1.08 0.62-2.737 0.82-4.97v0l5.15-0.55 0.45 0.6c-0.1 0.667-0.283 2.207-0.55 4.62-0.267 2.42-0.5 4.947-0.7 7.58v0l-0.6 0.65c-0.9-0.033-2.84-0.107-5.82-0.22-2.987-0.12-5.83-0.18-8.53-0.18v0c-1.967 0-3.883 0.067-5.75 0.2-1.867 0.133-3.067 0.233-3.6 0.3zM105.15-10.6l0.45 0.6c-0.6 3.167-1.067 6.4-1.4 9.7v0l-0.6 0.65c-6-0.233-11.25-0.35-15.75-0.35v0c-3.033 0-6.183 0.167-9.45 0.5v0l0.4-3.9c1.333-0.2 2.243-0.61 2.73-1.23 0.48-0.613 0.72-1.653 0.72-3.12v0l0.05-18.05c0-1.067-0.1-1.783-0.3-2.15-0.2-0.367-0.6-0.55-1.2-0.55v0c-0.5 0-0.983 0.033-1.45 0.1v0l-0.45-0.55 0.45-3.4h1.1c5.3 0.1 8.333 0.15 9.1 0.15v0c7.267 0 12.367-0.2 15.3-0.6v0l0.5 0.65c-0.267 1.3-0.507 2.85-0.72 4.65-0.22 1.8-0.363 3.4-0.43 4.8v0l-5.5 0.35 0.1-1.9c0-0.9-0.14-1.55-0.42-1.95-0.287-0.4-0.82-0.677-1.6-0.83-0.787-0.147-2.03-0.22-3.73-0.22v0c-0.967 0-1.583 0.083-1.85 0.25-0.267 0.167-0.4 0.583-0.4 1.25v0l-0.35 6.9 4.45 0.05c0.8 0 2.683-0.117 5.65-0.35v0l0.5 0.55-0.7 4.9c-3.3-0.1-5.4-0.15-6.3-0.15v0c-0.7 0-1.45 0.04-2.25 0.12-0.8 0.087-1.317 0.147-1.55 0.18v0l-0.1 5.85c0 0.933 0.067 1.6 0.2 2 0.133 0.4 0.393 0.667 0.78 0.8 0.38 0.133 1.02 0.2 1.92 0.2v0c1.867 0 3.24-0.133 4.12-0.4 0.887-0.267 1.523-0.777 1.91-1.53 0.38-0.747 0.687-1.953 0.92-3.62v0zM123.9 0.35l-0.3-0.4 0.25-3.55c1.133-0.1 1.933-0.2 2.4-0.3 0.467-0.1 0.783-0.25 0.95-0.45 0.167-0.2 0.25-0.533 0.25-1v0c0-0.1-0.067-0.55-0.2-1.35v0l-0.75-3c-1.733-0.067-3.15-0.1-4.25-0.1v0c-0.767 0-1.883 0.067-3.35 0.2v0l-1.1 0.1-0.9 3.1c-0.167 0.733-0.25 1.2-0.25 1.4v0c0 0.5 0.143 0.84 0.43 1.02 0.28 0.187 0.803 0.28 1.57 0.28v0h1.8l0.3 0.4-0.4 3.55c-0.5-0.033-1.543-0.073-3.13-0.12-1.58-0.053-3.02-0.08-4.32-0.08v0l-6.3 0.05 0.35-3.75c0.7-0.133 1.283-0.443 1.75-0.93 0.467-0.48 0.867-1.187 1.2-2.12v0l8.5-25.25 10.15-0.8 0.65 0.4c0.5 1.967 1.527 5.933 3.08 11.9 1.547 5.967 2.77 10.433 3.67 13.4v0c0.333 1.167 0.757 2.007 1.27 2.52 0.52 0.52 1.263 0.813 2.23 0.88v0l0.3 0.45-0.4 3.35c-0.467 0-1.323-0.017-2.57-0.05-1.253-0.033-2.563-0.05-3.93-0.05v0c-1.867 0-3.7 0.043-5.5 0.13-1.8 0.08-2.95 0.137-3.45 0.17zM119.2-14.6h3.1c0.167 0 1.25-0.05 3.25-0.15v0l-2.4-10.1h-0.85zM165.15 0.8c-1.233 0-2.29-0.377-3.17-1.13-0.887-0.747-1.68-1.903-2.38-3.47v0l-3.8-8.3h-3.2l-0.05 4.65c0 1.167 0.077 1.99 0.23 2.47 0.147 0.487 0.453 0.813 0.92 0.98 0.467 0.167 1.267 0.267 2.4 0.3v0l0.25 0.35-0.5 3.55-7.35-0.2c-1.367 0-2.873 0.05-4.52 0.15-1.653 0.1-2.73 0.167-3.23 0.2v0l0.45-3.85c1.333-0.2 2.233-0.59 2.7-1.17 0.467-0.587 0.7-1.58 0.7-2.98v0l0.05-18.5c0-0.9-0.107-1.517-0.32-1.85-0.22-0.333-0.613-0.5-1.18-0.5v0c-0.367 0-0.717 0.017-1.05 0.05-0.333 0.033-0.55 0.05-0.65 0.05v0l-0.4-0.45 0.5-3.45c0.5 0 1.41 0.017 2.73 0.05 1.313 0.033 2.603 0.05 3.87 0.05v0c1.5 0 3.1-0.033 4.8-0.1 1.7-0.067 2.883-0.117 3.55-0.15v0c4.133 0 7.277 0.75 9.43 2.25 2.147 1.5 3.22 3.717 3.22 6.65v0c0 1.967-0.55 3.757-1.65 5.37-1.1 1.62-2.683 2.997-4.75 4.13v0l3.8 6.25c0.9 1.5 1.777 2.6 2.63 3.3 0.847 0.7 1.72 1.05 2.62 1.05v0l0.45 0.65-0.4 3.05zM156.95-16.8c1.067-0.5 1.96-1.167 2.68-2 0.713-0.833 1.07-2.083 1.07-3.75v0c0-1.667-0.55-2.9-1.65-3.7-1.1-0.8-2.783-1.2-5.05-1.2v0c-0.333 0-0.55 0.067-0.65 0.2-0.1 0.133-0.167 0.433-0.2 0.9v0c-0.2 2.867-0.333 5.883-0.4 9.05v0zM197.5 1.05c-2.867-4.633-5.54-8.833-8.02-12.6-2.487-3.767-4.08-6.167-4.78-7.2v0h-0.6l0.05 12.7c0 0.9 0.133 1.527 0.4 1.88 0.267 0.347 0.733 0.52 1.4 0.52v0c0.367 0 0.75-0.027 1.15-0.08 0.4-0.047 0.667-0.07 0.8-0.07v0l0.35 0.35-0.5 3.65c-0.533-0.033-1.49-0.073-2.87-0.12-1.387-0.053-2.747-0.08-4.08-0.08v0c-1.267 0-2.607 0.06-4.02 0.18-1.42 0.113-2.347 0.187-2.78 0.22v0l0.45-3.85c1-0.133 1.727-0.443 2.18-0.93 0.447-0.48 0.687-1.22 0.72-2.22v0l0.6-18.75c0-0.767-0.1-1.35-0.3-1.75-0.2-0.4-0.573-0.7-1.12-0.9-0.553-0.2-1.38-0.367-2.48-0.5v0l-0.5-0.55 0.35-3.4c0.4 0.033 1.267 0.083 2.6 0.15 1.333 0.067 2.617 0.1 3.85 0.1v0c1 0 2.083-0.023 3.25-0.07 1.167-0.053 1.917-0.097 2.25-0.13v0c2.367 3.967 4.917 8.073 7.65 12.32 2.733 4.253 4.1 6.347 4.1 6.28v0h0.6l-0.1-12.5c-0.033-0.833-0.173-1.4-0.42-1.7-0.253-0.3-0.663-0.45-1.23-0.45v0h-1.65l-0.25-0.45 0.35-3.5c0.533 0.033 1.51 0.077 2.93 0.13 1.413 0.047 2.837 0.07 4.27 0.07v0c1.1 0 2.327-0.023 3.68-0.07 1.347-0.053 2.237-0.097 2.67-0.13v0l-0.25 3.8c-1.1 0.133-1.873 0.44-2.32 0.92-0.453 0.487-0.697 1.23-0.73 2.23v0l-0.65 25.85z" fill="#5521b5" fill-rule="nonzero" stroke="none" stroke-width="1" stroke-linecap="butt" stroke-linejoin="miter" stroke-miterlimit="10" stroke-dasharray="" stroke-dashoffset="0" font-family="none" font-weight="none" font-size="none" text-anchor="none" style="mix-blend-mode: normal" data-fill-palette-color="primary" opacity="1"></path><path xmlns="http://www.w3.org/2000/svg" d="M81.2 37.2l-0.3-0.4 0.25-3.55c1.133-0.1 1.933-0.2 2.4-0.3 0.467-0.1 0.783-0.25 0.95-0.45 0.167-0.2 0.25-0.533 0.25-1v0c0-0.1-0.067-0.55-0.2-1.35v0l-0.75-3c-1.733-0.067-3.15-0.1-4.25-0.1v0c-0.767 0-1.883 0.067-3.35 0.2v0l-1.1 0.1-0.9 3.1c-0.167 0.733-0.25 1.2-0.25 1.4v0c0 0.5 0.143 0.84 0.43 1.02 0.28 0.187 0.803 0.28 1.57 0.28v0h1.8l0.3 0.4-0.4 3.55c-0.5-0.033-1.54-0.073-3.12-0.12-1.587-0.053-3.03-0.08-4.33-0.08v0l-6.3 0.05 0.35-3.75c0.7-0.133 1.283-0.443 1.75-0.93 0.467-0.48 0.867-1.187 1.2-2.12v0l8.5-25.25 10.15-0.8 0.65 0.4c0.5 1.967 1.527 5.933 3.08 11.9 1.547 5.967 2.77 10.433 3.67 13.4v0c0.333 1.167 0.76 2.007 1.28 2.52 0.513 0.52 1.253 0.813 2.22 0.88v0l0.3 0.45-0.4 3.35c-0.467 0-1.323-0.017-2.57-0.05-1.253-0.033-2.563-0.05-3.93-0.05v0c-1.867 0-3.7 0.043-5.5 0.13-1.8 0.08-2.95 0.137-3.45 0.17zM76.5 22.25h3.1c0.167 0 1.25-0.05 3.25-0.15v0l-2.4-10.1h-0.85zM107.75 37.45c-1.633 0-3.133-0.15-4.5-0.45-1.367-0.3-2.5-0.627-3.4-0.98-0.9-0.347-1.35-0.537-1.35-0.57v0l-0.5-0.8c0.033-0.233 0.117-0.75 0.25-1.55 0.133-0.8 0.277-1.86 0.43-3.18 0.147-1.313 0.237-2.537 0.27-3.67v0l5.05-0.35c0 2.333 0.383 3.95 1.15 4.85 0.767 0.9 2.067 1.35 3.9 1.35v0c1.333 0 2.4-0.277 3.2-0.83 0.8-0.547 1.2-1.303 1.2-2.27v0c0-1-0.473-1.833-1.42-2.5-0.953-0.667-2.43-1.45-4.43-2.35v0c-0.267-0.133-0.527-0.26-0.78-0.38-0.247-0.113-0.47-0.22-0.67-0.32v0c-2.4-1.133-4.3-2.383-5.7-3.75-1.4-1.367-2.1-3.15-2.1-5.35v0c0-2 0.6-3.783 1.8-5.35 1.2-1.567 2.877-2.783 5.03-3.65 2.147-0.867 4.603-1.3 7.37-1.3v0c1.533 0 2.967 0.1 4.3 0.3 1.333 0.2 2.4 0.407 3.2 0.62 0.8 0.22 1.3 0.363 1.5 0.43v0l0.45 0.85c-0.033 0.2-0.127 0.683-0.28 1.45-0.147 0.767-0.32 1.823-0.52 3.17-0.2 1.353-0.35 2.697-0.45 4.03v0l-4.65 0.35-0.5-0.4 0.05-1.35c0-1.333-0.35-2.3-1.05-2.9-0.7-0.6-1.8-0.9-3.3-0.9v0c-1.2 0-2.183 0.273-2.95 0.82-0.767 0.553-1.15 1.28-1.15 2.18v0c0 0.733 0.283 1.383 0.85 1.95 0.567 0.567 1.233 1.057 2 1.47 0.767 0.42 1.967 0.997 3.6 1.73v0c1.8 0.8 3.3 1.567 4.5 2.3 1.2 0.733 2.21 1.683 3.03 2.85 0.813 1.167 1.22 2.567 1.22 4.2v0c0 2.067-0.6 3.873-1.8 5.42-1.2 1.553-2.9 2.747-5.1 3.58-2.2 0.833-4.783 1.25-7.75 1.25zM140.85 37.2l-0.3-0.4 0.25-3.55c1.133-0.1 1.933-0.2 2.4-0.3 0.467-0.1 0.783-0.25 0.95-0.45 0.167-0.2 0.25-0.533 0.25-1v0c0-0.1-0.067-0.55-0.2-1.35v0l-0.75-3c-1.733-0.067-3.15-0.1-4.25-0.1v0c-0.767 0-1.883 0.067-3.35 0.2v0l-1.1 0.1-0.9 3.1c-0.167 0.733-0.25 1.2-0.25 1.4v0c0 0.5 0.14 0.84 0.42 1.02 0.287 0.187 0.813 0.28 1.58 0.28v0h1.8l0.3 0.4-0.4 3.55c-0.5-0.033-1.54-0.073-3.12-0.12-1.587-0.053-3.03-0.08-4.33-0.08v0l-6.3 0.05 0.35-3.75c0.7-0.133 1.283-0.443 1.75-0.93 0.467-0.48 0.867-1.187 1.2-2.12v0l8.5-25.25 10.15-0.8 0.65 0.4c0.5 1.967 1.523 5.933 3.07 11.9 1.553 5.967 2.78 10.433 3.68 13.4v0c0.333 1.167 0.76 2.007 1.28 2.52 0.513 0.52 1.253 0.813 2.22 0.88v0l0.3 0.45-0.4 3.35c-0.467 0-1.327-0.017-2.58-0.05-1.247-0.033-2.553-0.05-3.92-0.05v0c-1.867 0-3.7 0.043-5.5 0.13-1.8 0.08-2.95 0.137-3.45 0.17zM136.15 22.25h3.1c0.167 0 1.25-0.05 3.25-0.15v0l-2.4-10.1h-0.85zM181.55 37.9c-2.867-4.633-5.543-8.833-8.03-12.6-2.48-3.767-4.07-6.167-4.77-7.2v0h-0.6l0.05 12.7c0 0.9 0.133 1.527 0.4 1.88 0.267 0.347 0.733 0.52 1.4 0.52v0c0.367 0 0.75-0.027 1.15-0.08 0.4-0.047 0.667-0.07 0.8-0.07v0l0.35 0.35-0.5 3.65c-0.533-0.033-1.49-0.073-2.87-0.12-1.387-0.053-2.747-0.08-4.08-0.08v0c-1.267 0-2.61 0.06-4.03 0.18-1.413 0.113-2.337 0.187-2.77 0.22v0l0.45-3.85c1-0.133 1.727-0.443 2.18-0.93 0.447-0.48 0.687-1.22 0.72-2.22v0l0.6-18.75c0-0.767-0.1-1.35-0.3-1.75-0.2-0.4-0.577-0.7-1.13-0.9-0.547-0.2-1.37-0.367-2.47-0.5v0l-0.5-0.55 0.35-3.4c0.4 0.033 1.267 0.083 2.6 0.15 1.333 0.067 2.617 0.1 3.85 0.1v0c1 0 2.083-0.023 3.25-0.07 1.167-0.053 1.917-0.097 2.25-0.13v0c2.367 3.967 4.917 8.073 7.65 12.32 2.733 4.253 4.1 6.347 4.1 6.28v0h0.6l-0.1-12.5c-0.033-0.833-0.177-1.4-0.43-1.7-0.247-0.3-0.653-0.45-1.22-0.45v0h-1.65l-0.25-0.45 0.35-3.5c0.533 0.033 1.51 0.077 2.93 0.13 1.413 0.047 2.837 0.07 4.27 0.07v0c1.1 0 2.327-0.023 3.68-0.07 1.347-0.053 2.237-0.097 2.67-0.13v0l-0.25 3.8c-1.1 0.133-1.873 0.44-2.32 0.92-0.453 0.487-0.697 1.23-0.73 2.23v0l-0.65 25.85z" fill="#5521b5" fill-rule="nonzero" stroke="none" stroke-width="1" stroke-linecap="butt" stroke-linejoin="miter" stroke-miterlimit="10" stroke-dasharray="" stroke-dashoffset="0" font-family="none" font-weight="none" font-size="none" text-anchor="none" style="mix-blend-mode: normal" data-fill-palette-color="primary" opacity="1"></path></g></svg></g></svg></g></svg></g></svg></g><g><svg viewBox="0 0 244.43135999999998 196.58812110086598" height="196.58812110086598" width="244.43135999999998"><g><svg xmlns="http://www.w3.org/2000/svg" xmlns:xlink="http://www.w3.org/1999/xlink" version="1.1" x="0" y="0" viewBox="0 9.78600025177002 100.0003433227539 80.42699432373047" enable-background="new 0 0 100 100" xml:space="preserve" width="244.43135999999998" height="196.58812110086598" class="icon-icon-0" data-fill-palette-color="accent" id="icon-0"><path d="M49.942 52.994c13.552-0.488 27.103-0.977 40.653-1.465-2.527-4.177-3.159-7.831-7.989-8.461-7.229-0.94-14.458-1.883-21.688-2.826-14.023-1.827-28.05-3.654-42.075-5.48C20.101 36.792 39.724 53.361 49.942 52.994z" fill="#5521b5" data-fill-palette-color="accent"></path><path d="M0 9.786c4.391 7.257 26.615 23.072 32.953 23.886 17.33 2.231 34.657 4.46 51.986 6.688-3.393-5.607-4.18-9.35-10.312-10.959-8.904-2.341-17.812-4.683-26.717-7.023C31.94 18.182 15.97 13.984 0 9.786z" fill="#5521b5" data-fill-palette-color="accent"></path><path d="M63.108 66.207c10.413-2.219 20.826-4.439 31.241-6.66-2.028-3.346-2.034-5.359-5.827-5.189-6.158 0.273-12.314 0.549-18.471 0.822-11.343 0.506-22.686 1.014-34.028 1.518C37.298 58.064 54.94 67.947 63.108 66.207z" fill="#5521b5" data-fill-palette-color="accent"></path><path d="M87.682 90.213c5.725-3.719 7.262-7.721 10.519-13.807 3.651-6.824 1.257-7.844-2.821-14.596-0.417-0.688-5.842 0.232-6.453 0.904-0.745 0.818-0.248 5.455-0.294 6.496C88.315 76.211 87.998 83.213 87.682 90.213z" fill="#5521b5" data-fill-palette-color="accent"></path><path d="M86.35 63.447c-3.795 0.809-8.604 0.191-9.572 4.229-1.373 5.736-2.746 11.475-4.12 17.211C81.904 82.678 86.028 71.582 86.35 63.447z" fill="#5521b5" data-fill-palette-color="accent"></path><path d="M74.666 66.121c-9.148 1.953-8.956 4.611-12.879 13.18C68.007 78.711 73.811 71.941 74.666 66.121z" fill="#5521b5" data-fill-palette-color="accent"></path></svg></g></svg></g></svg></g><defs></defs></svg><rect width="395.52" height="117.78820703219482" fill="none" stroke="none" visibility="hidden"></rect></g></svg></g></svg>